<!-- Uploaded to: SVG Repo, www.svgrepo.com, Generator: SVG Repo Mixer Tools -->
<svg fill="#000000" width="800px" height="800px" viewBox="-0.02 0 45.975 45.975" xmlns="http://www.w3.org/2000/svg">
  <path id="_15.Pencil" data-name="15.Pencil" d="M44.929,14.391a.955.955,0,0,1-.183.276L16.84,42.572a.949.949,0,0,1-.475.434L2.513,46.886a.682.682,0,0,1-.094.026l-.047.014c-.008,0-.017,0-.024,0a1.061,1.061,0,0,1-.286.045.926.926,0,0,1-.282-.041c-.021-.006-.04,0-.061-.009s-.013-.01-.021-.013a.94.94,0,0,1-.24-.141.885.885,0,0,1-.113-.086.884.884,0,0,1-.086-.113.952.952,0,0,1-.141-.24.239.239,0,0,1-.013-.021c-.007-.02,0-.04-.009-.061a.985.985,0,0,1-.041-.281,1.1,1.1,0,0,1,.045-.287c0-.008,0-.016,0-.023l.014-.049c.011-.03.013-.063.026-.093l3.88-13.852a.954.954,0,0,1,.434-.475L32.937,3.71c.04-.045.087-.083.128-.127l.3-.3c.015-.015.034-.02.05-.034A8.016,8.016,0,0,1,44.929,14.391ZM41.15,15.5l-3.619-3.619L13.891,35.522c0,.008.014.011.018.019l2.373,4.827ZM3.559,44.473l2.785-.779L4.338,41.689ZM4.943,39.53,8.5,43.089l6.12-1.715S12.035,36,12.031,36L6.657,33.41Zm7.547-5.406c.008,0,.011.013.019.018L36.15,10.5,32.531,6.881,7.663,31.749ZM38.922,3a6.073,6.073,0,0,0-4.489,1.994l-.007-.007-.514.513,8.619,8.619.527-.528-.006-.006A6.091,6.091,0,0,0,38.922,3Z" transform="translate(-1.055 -1)" fill-rule="evenodd"/>
</svg>